<svg version="1.1" viewBox="0.0 0.0 512.0 512.0" fill="none" stroke="none" stroke-linecap="square" stroke-miterlimit="10" xmlns:xlink="http://www.w3.org/1999/xlink" xmlns="http://www.w3.org/2000/svg"><clipPath id="p.0"><path d="m0 0l512.0 0l0 512.0l-512.0 0l0 -512.0z" clip-rule="nonzero"/></clipPath><g clip-path="url(#p.0)"><path fill="#000000" fill-opacity="0.0" d="m0 0l512.0 0l0 512.0l-512.0 0z" fill-rule="evenodd"/><path fill="#f8f8f8" d="m0 0l512.0 0l0 512.0l-512.0 0z" fill-rule="evenodd"/><path fill="#000000" fill-opacity="0.0" d="m45.396534 233.31883l256.0 0l0 255.99998l-256.0 0z" fill-rule="evenodd"/><path fill="#222222" d="m388.02155 509.04166q-20.25 0 -39.046875 -12.484375q-18.78125 -12.4687195 -31.765625 -40.96872q-5.5625 -12.515625 -9.03125 -25.25q-3.46875 -12.75 -5.140625 -23.859375q-1.65625 -11.125 -1.65625 -18.484375q0 -11.125 5.21875 -14.125q5.453125 0.578125 16.890625 -4.046875q11.453125 -4.625 27.921875 -14.0q16.46875 -9.375 35.671875 -22.671875q19.21875 -13.296875 38.6875 -29.953125q19.484375 -16.65625 37.421875 -35.9375q17.953125 -19.296875 31.578125 -40.390625q2.0 -3.171875 3.796875 -5.40625q1.796875 -2.234375 4.921875 -2.234375q3.25 0 5.5 2.53125q2.25 2.53125 2.25 5.5q0 3.40625 -2.515625 7.375q-13.171875 21.9375 -31.125 42.90625q-17.953125 20.96875 -38.203125 39.3125q-20.25 18.328125 -40.796875 33.125q-20.546875 14.78125 -39.328125 24.734375q-18.78125 9.9375 -35.203125 14.046875q0.515625 -4.125 4.21875 -1.859375q0 4.21875 1.84375 14.078125q1.84375 9.84375 5.703125 22.5q3.859375 12.65625 9.453125 25.71875q9.796875 22.953125 22.6875 31.328125q12.890625 8.390625 26.546875 8.390625q8.71875 0 18.078125 -3.546875q9.359375 -3.53125 17.140625 -9.6875q7.78125 -6.140625 12.03125 -14.40625q2.9375 -4.875 6.140625 -4.875q6.140625 0 6.140625 6.390625q0 1.671875 -0.59375 3.046875q-0.578125 1.375 -1.984375 4.484375q-4.15625 8.296875 -13.46875 17.3125q-9.3125 9.0312195 -22.125 15.2187195q-12.796875 6.1875 -27.859375 6.1875zm-230.12502 -3.515625q-19.03125 0 -36.875 -5.203125q-17.84375 -5.203125 -32.21875 -15.4374695q-14.359375 -10.234375 -22.859375 -25.234375q-8.499996 -14.984375 -8.499996 -33.984375q0 -13.8125 4.203125 -24.671875q4.203121 -10.875 10.484371 -18.1875q6.296875 -7.3125 12.90625 -11.3125q6.625 -4.0 11.609375 -4.0q6.9375 0 6.9375 5.859375q0 3.75 -3.5 5.859375q-5.8125 3.03125 -11.796875 8.765625q-5.984375 5.734375 -9.984375 14.96875q-3.984375 9.21875 -3.984375 23.265625q0 15.078125 6.34375 25.6875q6.359375 10.59375 16.90625 17.453125q10.5625 6.875 22.984375 10.09375q12.421875 3.234375 23.796875 3.234375q25.65625 0 47.96875 -9.984375q22.328125 -9.96875 41.0 -26.78125q18.6875 -16.828125 33.062515 -37.59375q14.375 -20.78125 23.703125 -42.109375q3.546875 -7.875 8.421875 -18.84375q4.875 -10.984375 10.5625 -23.453125q5.703125 -12.484375 11.125 -24.421875q5.4375 -11.9375 9.921875 -21.609375q4.5 -9.671875 5.59375 -9.21875q-12.3125 2.65625 -33.15625 4.40625q-20.828125 1.734375 -39.421875 7.046875q-20.26564 5.71875 -32.98439 16.515625q-12.71875 10.78125 -18.6875 23.234375q-5.953125 12.4375 -5.953125 23.125q0 12.640625 5.96875 20.328125q5.96875 7.6875 17.171875 7.6875q8.625 0 15.515625 -5.109375q6.890625 -5.109375 11.046875 -13.546875q4.1718903 -8.453125 4.1718903 -18.03125q0 -3.765625 -0.828125 -6.734375q-0.8125 -2.984375 -0.8125 -5.1875q0 -6.140625 5.59375 -6.140625q4.515625 0 7.375 5.6875q3.09375 7.15625 3.09375 14.0q0 13.921875 -6.8125 25.03125q-6.8125 11.109375 -17.51564 17.65625q-10.703125 6.546875 -22.734375 6.546875q-14.0 0 -24.34375 -6.75q-10.34375 -6.75 -15.984375 -17.734375q-5.640625 -11.0 -5.640625 -23.671875q0 -14.34375 7.8125 -28.953125q7.8125 -14.609375 24.828125 -26.375q17.015625 -11.765625 44.39064 -17.921875q22.5625 -4.9375 45.734375 -6.4375q23.171875 -1.5 38.671875 -2.9375q8.84375 -13.65625 15.71875 -18.171875q6.875 -4.53125 13.015625 -4.53125q6.5625 0 10.671875 3.921875q4.125 3.921875 4.125 9.53125q0 7.421875 -8.71875 14.5625q-8.71875 7.125 -25.375 8.921875q-7.46875 13.765625 -14.734375 33.265625q-7.25 19.484375 -14.578125 40.921875q-7.328125 21.4375 -16.046875 42.703125q-14.859375 35.765625 -35.359375 62.78125q-20.500015 27.0 -48.468765 42.109344q-27.96875 15.109375 -64.5625 15.109375zm202.75002 -251.40622q-0.96875 -0.9375 3.765625 -3.5q4.734375 -2.5625 4.734375 -4.109375q1.53125 -0.015625 1.53125 1.515625q-1.09375 0 -4.578125 2.515625q-3.484375 2.5 -5.453125 3.578125z" fill-rule="nonzero"/><path fill="#000000" fill-opacity="0.0" d="m-21.80728 -42.25146l256.0 0l0 409.32285l-256.0 0z" fill-rule="evenodd"/><path fill="#222222" d="m125.08334 305.20154q-32.390625 0 -59.640625 -9.6875q-27.234371 -9.6875 -44.328125 -29.0q-17.078125 -19.3125 -18.78125 -47.75q-0.703125 -11.859375 3.703125 -25.75q4.40625 -13.90625 12.265625 -27.453125q7.859375 -13.546875 18.859377 -24.546875q11.015625 -11.015625 23.390625 -16.687492q1.546875 -1.03125 4.359371 -1.46875q2.828125 -0.453125 4.1875 -0.453125q6.953125 0 6.953125 5.9843674q0 4.140625 -6.8125 9.15625q-12.765621 10.015625 -21.015621 23.15625q-8.625 13.234375 -12.921875 28.296875q-4.296877 15.0625 -4.296877 30.4375q0 17.59375 7.531252 30.171875q7.546875 12.5625 20.53125 20.875q12.984371 8.296875 29.968746 12.3125q17.0 4.015625 35.71875 4.015625q21.0 0 41.484375 -4.703125q20.484375 -4.6875 37.265625 -13.375q25.6875 -13.625 40.453125 -33.421875q14.765625 -19.796875 14.765625 -38.71875q0 -9.828125 -4.171875 -18.734375q-4.171875 -8.921875 -13.53125 -16.25q-7.3125 -5.78125 -18.109375 -11.09375q-10.796875 -5.328125 -23.140625 -10.453125q-12.328125 -5.125 -24.46875 -10.53125q-12.140625 -5.4218674 -21.515625 -11.781242q-13.78125 -9.3125 -20.375 -20.34375q-6.59375 -11.046875 -6.59375 -22.421875q0 -13.328129 7.53125 -25.578129q7.53125 -12.265625 20.296875 -21.953123q12.765625 -9.703125 28.640625 -15.125q13.609375 -4.625 29.609375 -7.265625q16.015625 -2.6562502 31.546875 -2.6562502q12.9375 0 24.9375 1.8750002q12.015625 1.859375 21.34375 6.6875q12.09375 5.703125 18.703125 15.4375q6.625 9.718748 6.625 20.593748q0 15.234375 -13.46875 26.437504q-4.578125 3.53125 -10.171875 6.5q-5.578125 2.953125 -13.265625 5.0625q-1.921875 0.46875 -4.140625 0.46875q-8.875 0 -8.875 -7.265625q0 -3.90625 3.71875 -6.484375q3.71875 -2.578125 9.125 -3.0q7.5625 -1.0 11.34375 -5.656254q3.796875 -4.65625 3.796875 -10.921875q0 -6.796875 -4.828125 -13.8125q-4.8125 -7.015623 -15.28125 -12.109373q-10.453125 -5.09375 -27.3125 -5.09375q-9.84375 0 -21.8125 2.1875q-11.96875 2.171875 -26.078125 7.1875q-16.609375 5.734373 -27.21875 16.499998q-10.609375 10.75 -10.609375 22.203129q0 6.859375 4.90625 14.296875q4.921875 7.421875 16.5 14.546875q10.359375 6.28125 23.734375 12.5q13.390625 6.203125 27.359375 12.546875q13.984375 6.3437424 25.515625 13.593742q18.703125 11.546875 27.09375 25.203125q8.40625 13.65625 8.40625 28.28125q0 16.796875 -9.703125 33.3125q-9.6875 16.515625 -24.953125 30.609375q-15.265625 14.09375 -33.40625 25.0q-21.234375 12.59375 -47.796875 19.34375q-26.546875 6.765625 -53.546875 6.765625z" fill-rule="nonzero"/></g></svg>