<svg version="1.1" viewBox="0.0 0.0 512.0 512.0" fill="none" stroke="none" stroke-linecap="square" stroke-miterlimit="10" xmlns:xlink="http://www.w3.org/1999/xlink" xmlns="http://www.w3.org/2000/svg"><clipPath id="p.0"><path d="m0 0l512.0 0l0 512.0l-512.0 0l0 -512.0z" clip-rule="nonzero"/></clipPath><g clip-path="url(#p.0)"><path fill="#000000" fill-opacity="0.0" d="m0 0l512.0 0l0 512.0l-512.0 0z" fill-rule="evenodd"/><path fill="#f8f8f8" d="m0 0l512.0 0l0 512.0l-512.0 0z" fill-rule="evenodd"/><path fill="#000000" fill-opacity="0.0" d="m113.30814 226.75452l176.79361 0l0 176.79358l-176.79361 0z" fill-rule="evenodd"/><path fill="#222222" d="m349.4644 417.16562q-13.96875 0 -26.953125 -8.625q-12.984375 -8.609375 -21.953125 -28.28125q-3.828125 -8.640625 -6.21875 -17.4375q-2.390625 -8.796875 -3.546875 -16.484375q-1.15625 -7.6875 -1.15625 -12.765625q0 -7.6875 3.609375 -9.734375q3.765625 0.390625 11.65625 -2.8125q7.90625 -3.203125 19.28125 -9.65625q11.375 -6.46875 24.640625 -15.65625q13.28125 -9.1875 26.71875 -20.6875q13.453125 -11.515625 25.84375 -24.82811q12.40625 -13.328125 21.8125 -27.890625q1.390625 -2.1875 2.625 -3.734375q1.234375 -1.546875 3.390625 -1.546875q2.25 0 3.796875 1.75q1.5625 1.75 1.5625 3.796875q0 2.359375 -1.75 5.09375q-9.09375 15.15625 -21.5 29.64061q-12.40625 14.484375 -26.390625 27.140625q-13.96875 12.65625 -28.15625 22.875q-14.1875 10.203125 -27.171875 17.078125q-12.96875 6.859375 -24.296875 9.703125q0.34375 -2.859375 2.90625 -1.28125q0 2.921875 1.265625 9.71875q1.28125 6.796875 3.9375 15.546875q2.671875 8.734375 6.546875 17.75q6.765625 15.84375 15.65625 21.640625q8.90625 5.796875 18.34375 5.796875q6.015625 0 12.484375 -2.453125q6.46875 -2.4375 11.828125 -6.6875q5.375 -4.25 8.328125 -9.953125q2.03125 -3.359375 4.234375 -3.359375q4.234375 0 4.234375 4.40625q0 1.15625 -0.40625 2.109375q-0.40625 0.953125 -1.375 3.09375q-2.875 5.71875 -9.296875 11.953125q-6.421875 6.234375 -15.28125 10.5q-8.84375 4.28125 -19.25 4.28125zm-158.92186 -2.421875q-13.140625 0 -25.46875 -3.59375q-12.328125 -3.59375 -22.25 -10.671875q-9.90625 -7.0625 -15.781258 -17.421875q-5.875 -10.34375 -5.875 -23.46875q0 -9.53125 2.90625 -17.03125q2.90625 -7.515625 7.2500076 -12.5625q4.34375 -5.046875 8.90625 -7.8125q4.578125 -2.765625 8.015625 -2.765625q4.796875 0 4.796875 4.046875q0 2.59375 -2.4375 4.046875q-4.015625 2.09375 -8.140625 6.0625q-4.125 3.953125 -6.890625 10.328125q-2.75 6.375 -2.75 16.0625q0 10.421875 4.390625 17.75q4.390625 7.3125 11.671875 12.046875q7.296875 4.75 15.859375 6.984375q8.578125 2.234375 16.4375 2.234375q17.71875 0 33.140625 -6.90625q15.421875 -6.890625 28.3125 -18.5q12.90625 -11.609375 22.82811 -25.953125q9.9375 -14.359375 16.375 -29.09375q2.4375 -5.421875 5.8125 -13.0q3.375 -7.59375 7.3125 -16.21875q3.9375 -8.625 7.671875 -16.859375q3.75 -8.234375 6.84375 -14.90625q3.109375 -6.6874847 3.859375 -6.3749847q-8.5 1.828125 -22.890625 3.046875q-14.390625 1.203125 -27.21875 4.8593597q-13.999985 3.953125 -22.79686 11.40625q-8.78125 7.453125 -12.90625 16.046875q-4.109375 8.59375 -4.109375 15.96875q0 8.734375 4.125 14.046875q4.125 5.3125 11.859375 5.3125q5.953125 0 10.703125 -3.515625q4.765625 -3.53125 7.6406097 -9.375q2.890625 -5.84375 2.890625 -12.453125q0 -2.609375 -0.5625 -4.65625q-0.5625 -2.0625 -0.5625 -3.578125q0 -4.234375 3.859375 -4.234375q3.109375 0 5.0625 3.9375q2.15625 4.921875 2.15625 9.65625q0 9.625 -4.703125 17.296875q-4.703125 7.65625 -12.093735 12.171875q-7.390625 4.515625 -15.703125 4.515625q-9.671875 0 -16.8125 -4.65625q-7.140625 -4.65625 -11.046875 -12.234375q-3.890625 -7.59375 -3.890625 -16.34375q0 -9.90625 5.390625 -19.984375q5.390625 -10.09375 17.15625 -18.234375q11.765625 -8.14061 30.656235 -12.374985q15.578125 -3.421875 31.578125 -4.453125q16.0 -1.03125 26.71875 -2.03125q6.109375 -9.421875 10.84375 -12.546875q4.75 -3.125 9.0 -3.125q4.53125 0 7.375 2.71875q2.84375 2.703125 2.84375 6.5625q0 5.140625 -6.03125 10.0625q-6.015625 4.921875 -17.515625 6.15625q-5.15625 9.531235 -10.171875 22.98436q-5.015625 13.453125 -10.078125 28.265625q-5.0625 14.8125 -11.078125 29.484375q-10.265625 24.703125 -24.421875 43.359375q-14.156235 18.640625 -33.48436 29.078125q-19.3125 10.4375 -44.578125 10.4375zm140.03123 -173.60936q-0.6875 -0.640625 2.578125 -2.421875q3.28125 -1.78125 3.28125 -2.859375q1.0625 0 1.0625 1.0625q-0.75 0 -3.15625 1.734375q-2.40625 1.71875 -3.765625 2.484375z" fill-rule="nonzero"/><path fill="#000000" fill-opacity="0.0" d="m66.897194 36.44567l176.79361 0l0 282.67834l-176.79361 0z" fill-rule="evenodd"/><path fill="#222222" d="m168.11594 276.17828q-22.359375 0 -41.171867 -6.703125q-18.8125 -6.6875 -30.625 -20.01564q-11.796875 -13.328125 -12.984375 -32.96875q-0.46875 -8.203125 2.578125 -17.796875q3.046875 -9.59375 8.46875 -18.953125q5.4375 -9.359375 13.03125 -16.953125q7.59375 -7.609375 16.140625 -11.546875q1.09375 -0.703125 3.03125 -1.0q1.9531174 -0.296875 2.8749924 -0.296875q4.8125 0 4.8125 4.125q0 2.859375 -4.71875 6.328125q-8.812492 6.921875 -14.499992 15.984375q-5.953125 9.140625 -8.921875 19.546875q-2.96875 10.390625 -2.96875 21.015625q0 12.15625 5.203125 20.84375q5.21875 8.671875 14.171875 14.40625q8.968742 5.7343903 20.703117 8.500015q11.734375 2.765625 24.65625 2.765625q14.5 0 28.640625 -3.234375q14.15625 -3.234375 25.734375 -9.250015q17.75 -9.40625 27.9375 -23.0625q10.203125 -13.671875 10.203125 -26.734375q0 -6.796875 -2.890625 -12.953125q-2.890625 -6.15625 -9.34375 -11.21875q-5.046875 -3.984375 -12.5 -7.65625q-7.453125 -3.671875 -15.984375 -7.203125q-8.515625 -3.546875 -16.890625 -7.28125q-8.375 -3.75 -14.84375 -8.140625q-9.53125 -6.4375 -14.09375 -14.0625q-4.546875 -7.6249924 -4.546875 -15.468742q0 -9.203125 5.203125 -17.671875q5.203125 -8.484375 14.015625 -15.171875q8.8125 -6.703125 19.78125 -10.4375q9.390625 -3.203125 20.4375 -5.015625q11.0625 -1.828125 21.796875 -1.828125q8.921875 0 17.21875 1.28125q8.3125 1.28125 14.75 4.625q8.359375 3.9375 12.921875 10.65625q4.5625 6.71875 4.5625 14.234375q0 10.515625 -9.296875 18.25q-3.171875 2.4375 -7.03125 4.5q-3.859375 2.046875 -9.125 3.46875q-1.328125 0.359375 -2.90625 0.359375q-6.125 0 -6.125 -5.03125q0 -2.703125 2.578125 -4.484375q2.578125 -1.796875 6.3125 -2.078125q5.203125 -0.6875 7.8125 -3.890625q2.625 -3.21875 2.625 -7.546875q0 -4.6875 -3.328125 -9.53125q-3.328125 -4.859375 -10.5625 -8.359375q-7.21875 -3.515625 -18.859375 -3.515625q-6.796875 0 -15.0625 1.5q-8.265625 1.5 -18.015625 4.953125q-11.453125 3.984375 -18.78125 11.40625q-7.328125 7.421875 -7.328125 15.328125q0 4.734375 3.390625 9.875q3.390625 5.1249924 11.40625 10.046867q7.15625 4.34375 16.390625 8.625q9.234375 4.28125 18.875 8.671875q9.65625 4.375 17.625 9.390625q12.90625 7.96875 18.703125 17.40625q5.8125 9.421875 5.8125 19.515625q0 11.609375 -6.703125 23.015625q-6.6875 11.40625 -17.234375 21.15625q-10.53125 9.734375 -23.0625 17.250015q-14.65625 8.6875 -33.0 13.359375q-18.34375 4.671875 -37.0 4.671875z" fill-rule="nonzero"/></g></svg>